<mxfile host="app.diagrams.net" modified="2021-04-17T03:18:44.693Z" agent="5.0 (Windows NT 10.0; Win64; x64) AppleWebKit/537.36 (KHTML, like Gecko) Chrome/89.0.4389.128 Safari/537.36" etag="BHx6WQBZ13mucDP47nLf" version="14.6.1" type="github">
  <diagram id="lbO7JzAoOajayuu7gQBL" name="第 1 页">
    <mxGraphModel dx="868" dy="394" grid="1" gridSize="10" guides="1" tooltips="1" connect="1" arrows="1" fold="1" page="1" pageScale="1" pageWidth="1169" pageHeight="827" math="0" shadow="0">
      <root>
        <mxCell id="0" />
        <mxCell id="1" parent="0" />
        <mxCell id="G5I4RC65D_-VNhyn8C83-9" value="" style="rounded=0;whiteSpace=wrap;html=1;fillColor=none;dashed=1;" vertex="1" parent="1">
          <mxGeometry x="270" y="395" width="180" height="100" as="geometry" />
        </mxCell>
        <mxCell id="G5I4RC65D_-VNhyn8C83-31" style="edgeStyle=none;rounded=0;orthogonalLoop=1;jettySize=auto;html=1;exitX=0.75;exitY=0;exitDx=0;exitDy=0;entryX=0.75;entryY=1;entryDx=0;entryDy=0;" edge="1" parent="1" source="G5I4RC65D_-VNhyn8C83-4" target="G5I4RC65D_-VNhyn8C83-17">
          <mxGeometry relative="1" as="geometry" />
        </mxCell>
        <mxCell id="G5I4RC65D_-VNhyn8C83-4" value="&lt;font style=&quot;font-size: 14px&quot;&gt;Compsite Framwork&lt;br&gt;&lt;/font&gt;" style="rounded=0;whiteSpace=wrap;html=1;fillColor=#fff2cc;strokeColor=#d6b656;" vertex="1" parent="1">
          <mxGeometry x="280" y="405" width="160" height="40" as="geometry" />
        </mxCell>
        <mxCell id="G5I4RC65D_-VNhyn8C83-5" style="edgeStyle=orthogonalEdgeStyle;rounded=0;orthogonalLoop=1;jettySize=auto;html=1;exitX=0.75;exitY=0;exitDx=0;exitDy=0;entryX=0.75;entryY=1;entryDx=0;entryDy=0;" edge="1" parent="1" source="G5I4RC65D_-VNhyn8C83-6" target="G5I4RC65D_-VNhyn8C83-8">
          <mxGeometry relative="1" as="geometry" />
        </mxCell>
        <mxCell id="G5I4RC65D_-VNhyn8C83-48" style="edgeStyle=orthogonalEdgeStyle;rounded=0;orthogonalLoop=1;jettySize=auto;html=1;exitX=1;exitY=0.5;exitDx=0;exitDy=0;entryX=0.354;entryY=1.15;entryDx=0;entryDy=0;entryPerimeter=0;dashed=1;startArrow=block;startFill=1;endArrow=none;endFill=0;" edge="1" parent="1" source="G5I4RC65D_-VNhyn8C83-6" target="G5I4RC65D_-VNhyn8C83-32">
          <mxGeometry relative="1" as="geometry" />
        </mxCell>
        <mxCell id="G5I4RC65D_-VNhyn8C83-6" value="&lt;font style=&quot;font-size: 14px&quot;&gt;Device Control driver&lt;br&gt;&lt;/font&gt;" style="rounded=0;whiteSpace=wrap;html=1;fillColor=#d5e8d4;strokeColor=#82b366;" vertex="1" parent="1">
          <mxGeometry x="280" y="525" width="160" height="60" as="geometry" />
        </mxCell>
        <mxCell id="G5I4RC65D_-VNhyn8C83-7" style="edgeStyle=orthogonalEdgeStyle;rounded=0;orthogonalLoop=1;jettySize=auto;html=1;exitX=0.25;exitY=1;exitDx=0;exitDy=0;entryX=0.25;entryY=0;entryDx=0;entryDy=0;" edge="1" parent="1" source="G5I4RC65D_-VNhyn8C83-8" target="G5I4RC65D_-VNhyn8C83-6">
          <mxGeometry relative="1" as="geometry" />
        </mxCell>
        <mxCell id="G5I4RC65D_-VNhyn8C83-8" value="&lt;font style=&quot;font-size: 14px&quot;&gt;USB Gadget Interface&lt;br&gt;&lt;/font&gt;" style="rounded=0;whiteSpace=wrap;html=1;fillColor=#fff2cc;strokeColor=#d6b656;" vertex="1" parent="1">
          <mxGeometry x="280" y="445" width="160" height="40" as="geometry" />
        </mxCell>
        <mxCell id="G5I4RC65D_-VNhyn8C83-10" value="" style="shape=curlyBracket;whiteSpace=wrap;html=1;rounded=1;fillColor=none;" vertex="1" parent="1">
          <mxGeometry x="230" y="395" width="20" height="100" as="geometry" />
        </mxCell>
        <mxCell id="G5I4RC65D_-VNhyn8C83-11" value="" style="shape=curlyBracket;whiteSpace=wrap;html=1;rounded=1;fillColor=none;" vertex="1" parent="1">
          <mxGeometry x="230" y="525" width="20" height="60" as="geometry" />
        </mxCell>
        <mxCell id="G5I4RC65D_-VNhyn8C83-12" value="" style="shape=curlyBracket;whiteSpace=wrap;html=1;rounded=1;fillColor=none;" vertex="1" parent="1">
          <mxGeometry x="230" y="305" width="20" height="60" as="geometry" />
        </mxCell>
        <mxCell id="G5I4RC65D_-VNhyn8C83-13" value="1. USB 设备控制器层" style="text;html=1;align=center;verticalAlign=middle;resizable=0;points=[];autosize=1;strokeColor=none;" vertex="1" parent="1">
          <mxGeometry x="100" y="545" width="130" height="20" as="geometry" />
        </mxCell>
        <mxCell id="G5I4RC65D_-VNhyn8C83-14" value="2. Gadget 设备层" style="text;html=1;align=center;verticalAlign=middle;resizable=0;points=[];autosize=1;strokeColor=none;" vertex="1" parent="1">
          <mxGeometry x="110" y="435" width="110" height="20" as="geometry" />
        </mxCell>
        <mxCell id="G5I4RC65D_-VNhyn8C83-15" value="3. 设备功能驱动" style="text;html=1;align=center;verticalAlign=middle;resizable=0;points=[];autosize=1;strokeColor=none;" vertex="1" parent="1">
          <mxGeometry x="115" y="325" width="100" height="20" as="geometry" />
        </mxCell>
        <mxCell id="G5I4RC65D_-VNhyn8C83-19" value="" style="group;fillColor=#dae8fc;strokeColor=#6c8ebf;" vertex="1" connectable="0" parent="1">
          <mxGeometry x="280" y="295" width="160" height="80" as="geometry" />
        </mxCell>
        <mxCell id="G5I4RC65D_-VNhyn8C83-17" value="" style="rounded=0;whiteSpace=wrap;html=1;fillColor=#d5e8d4;strokeColor=#82b366;" vertex="1" parent="G5I4RC65D_-VNhyn8C83-19">
          <mxGeometry width="160" height="80" as="geometry" />
        </mxCell>
        <mxCell id="G5I4RC65D_-VNhyn8C83-2" value="&lt;font style=&quot;font-size: 14px&quot;&gt;legacy&lt;br&gt;&lt;/font&gt;" style="rounded=0;whiteSpace=wrap;html=1;fillColor=#f8cecc;strokeColor=#b85450;" vertex="1" parent="G5I4RC65D_-VNhyn8C83-19">
          <mxGeometry x="10" y="10" width="70" height="60" as="geometry" />
        </mxCell>
        <mxCell id="G5I4RC65D_-VNhyn8C83-16" value="&lt;font style=&quot;font-size: 14px&quot;&gt;functions&lt;br&gt;&lt;/font&gt;" style="rounded=0;whiteSpace=wrap;html=1;fillColor=#dae8fc;strokeColor=#6c8ebf;" vertex="1" parent="G5I4RC65D_-VNhyn8C83-19">
          <mxGeometry x="80" y="10" width="70" height="60" as="geometry" />
        </mxCell>
        <mxCell id="G5I4RC65D_-VNhyn8C83-29" style="edgeStyle=none;rounded=0;orthogonalLoop=1;jettySize=auto;html=1;exitX=0.25;exitY=1;exitDx=0;exitDy=0;entryX=0.25;entryY=0;entryDx=0;entryDy=0;" edge="1" parent="1" source="G5I4RC65D_-VNhyn8C83-17" target="G5I4RC65D_-VNhyn8C83-4">
          <mxGeometry relative="1" as="geometry" />
        </mxCell>
        <mxCell id="G5I4RC65D_-VNhyn8C83-32" value="&lt;font&gt;&lt;span style=&quot;font-size: 14px&quot;&gt;usb_gadget_driver&lt;/span&gt;&lt;br&gt;&lt;/font&gt;" style="text;html=1;align=left;verticalAlign=middle;resizable=0;points=[];autosize=1;strokeColor=none;" vertex="1" parent="1">
          <mxGeometry x="542.5" y="455" width="130" height="20" as="geometry" />
        </mxCell>
        <mxCell id="G5I4RC65D_-VNhyn8C83-35" value="&lt;font&gt;&lt;span style=&quot;font-size: 14px&quot;&gt;usb_composite_dev&lt;/span&gt;&lt;br&gt;&lt;/font&gt;" style="text;html=1;align=left;verticalAlign=middle;resizable=0;points=[];autosize=1;strokeColor=none;" vertex="1" parent="1">
          <mxGeometry x="545" y="415" width="140" height="20" as="geometry" />
        </mxCell>
        <mxCell id="G5I4RC65D_-VNhyn8C83-37" value="&lt;span style=&quot;font-size: 14px&quot;&gt;webcam.c&lt;/span&gt;&lt;br style=&quot;font-size: 14px&quot;&gt;&lt;span style=&quot;font-size: 14px&quot;&gt;hid.c&lt;/span&gt;&lt;br style=&quot;font-size: 14px&quot;&gt;&lt;span style=&quot;font-size: 14px&quot;&gt;audio.c&lt;/span&gt;&lt;br style=&quot;font-size: 14px&quot;&gt;&lt;span style=&quot;font-size: 14px&quot;&gt;mult.c&lt;br&gt;...&lt;br&gt;&lt;/span&gt;" style="rounded=0;whiteSpace=wrap;html=1;fillColor=#f8cecc;align=center;strokeColor=#b85450;" vertex="1" parent="1">
          <mxGeometry x="115" y="170" width="100" height="109" as="geometry" />
        </mxCell>
        <mxCell id="G5I4RC65D_-VNhyn8C83-39" style="edgeStyle=orthogonalEdgeStyle;rounded=0;orthogonalLoop=1;jettySize=auto;html=1;exitX=0.5;exitY=0;exitDx=0;exitDy=0;entryX=1;entryY=0.569;entryDx=0;entryDy=0;entryPerimeter=0;dashed=1;" edge="1" parent="1" source="G5I4RC65D_-VNhyn8C83-2" target="G5I4RC65D_-VNhyn8C83-37">
          <mxGeometry relative="1" as="geometry" />
        </mxCell>
        <mxCell id="G5I4RC65D_-VNhyn8C83-40" value="&lt;span style=&quot;font-size: 14px ; text-align: left&quot;&gt;gadget 设备功能驱动入口&lt;/span&gt;" style="text;html=1;align=center;verticalAlign=middle;resizable=0;points=[];autosize=1;strokeColor=none;" vertex="1" parent="1">
          <mxGeometry x="80" y="140" width="170" height="20" as="geometry" />
        </mxCell>
        <mxCell id="G5I4RC65D_-VNhyn8C83-41" value="&lt;span style=&quot;font-size: 14px&quot;&gt;f_uvc.c&lt;/span&gt;&lt;br style=&quot;font-size: 14px&quot;&gt;&lt;span style=&quot;font-size: 14px&quot;&gt;f_uac1.c&lt;/span&gt;&lt;br style=&quot;font-size: 14px&quot;&gt;&lt;span style=&quot;font-size: 14px&quot;&gt;f_hid.c&lt;/span&gt;&lt;br style=&quot;font-size: 14px&quot;&gt;&lt;span style=&quot;font-size: 14px&quot;&gt;...&lt;/span&gt;" style="rounded=0;whiteSpace=wrap;html=1;align=center;fillColor=#dae8fc;strokeColor=#6c8ebf;" vertex="1" parent="1">
          <mxGeometry x="480" y="179" width="90" height="100" as="geometry" />
        </mxCell>
        <mxCell id="G5I4RC65D_-VNhyn8C83-44" style="edgeStyle=orthogonalEdgeStyle;rounded=0;orthogonalLoop=1;jettySize=auto;html=1;exitX=0.5;exitY=0;exitDx=0;exitDy=0;entryX=0;entryY=0.5;entryDx=0;entryDy=0;dashed=1;" edge="1" parent="1" source="G5I4RC65D_-VNhyn8C83-16" target="G5I4RC65D_-VNhyn8C83-41">
          <mxGeometry relative="1" as="geometry" />
        </mxCell>
        <mxCell id="G5I4RC65D_-VNhyn8C83-45" value="&lt;span style=&quot;font-size: 14px ; text-align: left&quot;&gt;usb functions drivers&lt;/span&gt;" style="text;html=1;align=center;verticalAlign=middle;resizable=0;points=[];autosize=1;strokeColor=none;" vertex="1" parent="1">
          <mxGeometry x="470" y="140" width="140" height="20" as="geometry" />
        </mxCell>
        <mxCell id="G5I4RC65D_-VNhyn8C83-47" style="edgeStyle=orthogonalEdgeStyle;rounded=0;orthogonalLoop=1;jettySize=auto;html=1;exitX=0.75;exitY=0;exitDx=0;exitDy=0;entryX=0.229;entryY=0.1;entryDx=0;entryDy=0;entryPerimeter=0;dashed=1;endArrow=none;endFill=0;startArrow=block;startFill=1;" edge="1" parent="1" source="G5I4RC65D_-VNhyn8C83-2" target="G5I4RC65D_-VNhyn8C83-35">
          <mxGeometry relative="1" as="geometry" />
        </mxCell>
        <mxCell id="G5I4RC65D_-VNhyn8C83-51" style="edgeStyle=orthogonalEdgeStyle;rounded=0;orthogonalLoop=1;jettySize=auto;html=1;exitX=0;exitY=0.5;exitDx=0;exitDy=0;dashed=1;startArrow=block;startFill=1;endArrow=none;endFill=0;" edge="1" parent="1" source="G5I4RC65D_-VNhyn8C83-49">
          <mxGeometry relative="1" as="geometry">
            <mxPoint x="460" y="446" as="targetPoint" />
          </mxGeometry>
        </mxCell>
        <mxCell id="G5I4RC65D_-VNhyn8C83-49" value="" style="rounded=0;whiteSpace=wrap;html=1;fillColor=none;align=left;dashed=1;" vertex="1" parent="1">
          <mxGeometry x="530" y="408" width="155" height="76" as="geometry" />
        </mxCell>
      </root>
    </mxGraphModel>
  </diagram>
</mxfile>
